<?xml version="1.0" standalone="no"?>
<!DOCTYPE svg PUBLIC "-//W3C//DTD SVG 20010904//EN"
 "http://www.w3.org/TR/2001/REC-SVG-20010904/DTD/svg10.dtd">
<svg version="1.0" xmlns="http://www.w3.org/2000/svg"
 width="700.000000pt" height="700.000000pt" viewBox="0 0 700.000000 700.000000"
 preserveAspectRatio="xMidYMid meet">
<metadata>
Created by potrace 1.14, written by Peter Selinger 2001-2017
</metadata>
<g transform="translate(0.000000,700.000000) scale(0.100000,-0.100000)"
fill="#000000" stroke="none">
<path d="M3385 6974 c-310 -48 -571 -246 -691 -523 -18 -42 -36 -93 -39 -114
-4 -20 -10 -39 -14 -41 -4 -3 -30 13 -57 34 -157 120 -346 180 -549 175 -129
-3 -154 -7 -258 -41 -164 -53 -307 -153 -420 -295 -50 -62 -111 -175 -137
-253 -40 -123 -47 -180 -45 -424 2 -188 0 -212 -14 -213 -144 -8 -227 -25
-338 -69 -288 -115 -506 -400 -539 -703 -7 -67 -8 -110 -1 -352 4 -166 8 -200
30 -270 44 -139 108 -258 186 -344 17 -18 31 -37 31 -41 0 -3 -14 -22 -31 -41
-59 -65 -129 -182 -171 -284 -30 -75 -52 -210 -50 -310 1 -33 3 -139 5 -235 2
-97 6 -180 9 -185 3 -6 9 -27 12 -48 3 -21 21 -75 38 -120 129 -326 445 -546
798 -556 l35 -1 0 -213 c0 -261 15 -357 78 -499 97 -217 293 -395 522 -473
155 -52 363 -57 520 -10 102 30 205 81 285 142 55 41 70 45 70 17 0 -29 50
-155 85 -216 126 -214 306 -353 548 -420 112 -31 324 -31 438 0 136 37 271
111 378 207 34 30 141 159 141 170 0 3 11 23 25 44 29 44 97 226 88 235 -4 3
-3 6 1 6 5 0 35 -20 68 -45 80 -60 205 -120 303 -146 111 -29 292 -34 400 -10
269 59 492 231 605 466 81 169 92 232 94 537 l1 208 30 1 c122 3 245 31 345
77 232 107 418 319 483 553 27 99 30 123 34 294 2 94 4 190 6 215 2 42 -1 82
-18 189 -7 49 -48 166 -78 226 -25 50 -87 140 -126 184 -17 18 -31 37 -31 41
0 4 12 20 26 35 83 89 182 280 200 385 3 14 7 32 11 40 5 13 13 268 14 442 1
242 -101 475 -278 638 -165 153 -353 226 -609 239 -8 1 -11 61 -9 212 2 226
-4 284 -36 394 -73 245 -264 458 -498 554 -114 48 -196 64 -326 67 -198 3
-363 -47 -525 -161 l-79 -55 -16 58 c-83 286 -321 519 -617 602 -72 21 -274
34 -343 24z"/>
</g>
</svg>
