<?xml version="1.0" ?><!DOCTYPE svg  PUBLIC '-//W3C//DTD SVG 1.1//EN'  'http://www.w3.org/Graphics/SVG/1.1/DTD/svg11.dtd'><svg enable-background="new 0 0 200 200" height="200px" id="Слой_1" version="1.1" viewBox="0 0 200 200" width="200px" xml:space="preserve" xmlns="http://www.w3.org/2000/svg" xmlns:xlink="http://www.w3.org/1999/xlink"><g><path d="M179.474,103.995c10.021-5.821,15.015-18.018,11.291-29.487c-3.729-11.486-14.934-18.408-26.477-17.221   c4.695-10.603,1.569-23.407-8.195-30.501c-9.767-7.095-22.9-6.107-31.535,1.639C122.128,17.083,112.066,8.569,100,8.569   c-12.068,0-22.129,8.514-24.559,19.855c-8.633-7.746-21.773-8.724-31.535-1.629c-9.764,7.094-12.902,19.898-8.195,30.501   C24.178,56.1,12.967,63.03,9.238,74.508c-3.732,11.486,1.256,23.684,11.299,29.496c-10.039,5.813-15.031,18.009-11.303,29.487   c3.732,11.485,14.938,18.414,26.477,17.22c-4.699,10.603-1.568,23.406,8.189,30.5c9.773,7.096,22.908,6.116,31.545-1.629   c2.43,11.34,12.486,19.855,24.555,19.855c12.075,0,22.128-8.516,24.558-19.855c8.631,7.736,21.777,8.725,31.54,1.629   c9.767-7.103,12.895-19.897,8.194-30.5c11.535,1.188,22.743-5.743,26.473-17.22C194.493,122.004,189.509,109.817,179.474,103.995z" fill="#6AA63A"/><path d="M179.577,96.113c10.035-5.83,15.035-18.042,11.306-29.526c-3.734-11.501-14.953-18.432-26.511-17.243   c4.701-10.617,1.569-23.437-8.206-30.54c-9.779-7.104-22.93-6.115-31.576,1.639C122.156,9.089,112.082,0.563,100,0.563   c-12.084,0-22.158,8.526-24.59,19.88c-8.645-7.754-21.803-8.734-31.578-1.63c-9.775,7.103-12.92,19.923-8.205,30.54   c-11.549-1.197-22.773,5.742-26.506,17.234c-3.74,11.501,1.256,23.714,11.314,29.534c-10.053,5.82-15.055,18.033-11.32,29.526   c3.738,11.501,14.959,18.44,26.512,17.243c-4.705,10.617-1.57,23.437,8.201,30.541c9.785,7.103,22.938,6.123,31.586-1.631   C77.848,183.154,87.916,191.68,100,191.68c12.091,0,22.156-8.525,24.59-19.879c8.643,7.745,21.806,8.733,31.581,1.631   c9.779-7.113,12.911-19.924,8.205-30.541c11.55,1.188,22.772-5.75,26.507-17.243C194.617,114.146,189.626,101.941,179.577,96.113z" fill="#7BC043"/></g><path d="M89.033,82.483l20.184-29.214c3.801-5.51,8.732-8.269,14.76-8.269c4.935,0,9.191,1.756,12.789,5.247  c3.61,3.492,5.395,7.678,5.395,12.548c0,3.595-0.941,6.785-2.844,9.53l-18.185,26.442l22.231,28.199  c2.219,2.804,3.338,6.084,3.338,9.844c0,4.973-1.754,9.248-5.239,12.824c-3.503,3.573-7.74,5.365-12.711,5.365  c-5.448,0-9.605-1.767-12.463-5.335l-27.254-33.973v18.747c0,5.334-0.921,9.498-2.773,12.446C82.865,152.293,77.948,155,71.488,155  c-5.871,0-10.43-1.982-13.651-5.953c-3.021-3.664-4.532-8.503-4.532-14.543V65.02c0-5.716,1.526-10.428,4.607-14.13  C61.134,46.966,65.581,45,71.254,45c5.391,0,9.899,1.966,13.495,5.89c2.005,2.155,3.29,4.359,3.812,6.581  c0.314,1.373,0.471,3.944,0.471,7.706V82.483z" fill="#FFFFFF"/></svg>